<mxfile host="65bd71144e">
    <diagram id="6l6M-m7wYowUgdFaHuG6" name="PÃ¡gina-1">
        <mxGraphModel dx="648" dy="357" grid="1" gridSize="10" guides="1" tooltips="1" connect="1" arrows="1" fold="1" page="1" pageScale="1" pageWidth="827" pageHeight="1169" math="0" shadow="0">
            <root>
                <mxCell id="0"/>
                <mxCell id="1" parent="0"/>
                <mxCell id="4" style="edgeStyle=none;html=1;exitX=0.5;exitY=1;exitDx=0;exitDy=0;entryX=0.5;entryY=1;entryDx=0;entryDy=0;" edge="1" parent="1" source="2" target="3">
                    <mxGeometry relative="1" as="geometry"/>
                </mxCell>
                <mxCell id="2" value="Inicio" style="ellipse;whiteSpace=wrap;html=1;fillColor=#008a00;fontColor=#ffffff;strokeColor=#005700;fontFamily=Comic Sans MS;fontStyle=1;fontSize=16;" vertex="1" parent="1">
                    <mxGeometry x="270" y="150" width="120" height="80" as="geometry"/>
                </mxCell>
                <mxCell id="7" style="edgeStyle=none;html=1;exitX=0.5;exitY=1;exitDx=0;exitDy=0;entryX=0.5;entryY=0;entryDx=0;entryDy=0;fontFamily=Comic Sans MS;fontSize=16;" edge="1" parent="1" source="3" target="5">
                    <mxGeometry relative="1" as="geometry"/>
                </mxCell>
                <mxCell id="3" value="r" style="shape=parallelogram;perimeter=parallelogramPerimeter;whiteSpace=wrap;html=1;fixedSize=1;rotation=0;fillColor=#0050ef;fontColor=#ffffff;strokeColor=#001DBC;fontFamily=Comic Sans MS;fontStyle=1;fontSize=20;" vertex="1" parent="1">
                    <mxGeometry x="270" y="250" width="120" height="60" as="geometry"/>
                </mxCell>
                <mxCell id="8" style="edgeStyle=none;html=1;exitX=0.5;exitY=1;exitDx=0;exitDy=0;entryX=0.5;entryY=0;entryDx=0;entryDy=0;fontFamily=Comic Sans MS;fontSize=16;" edge="1" parent="1" source="5" target="6">
                    <mxGeometry relative="1" as="geometry"/>
                </mxCell>
                <mxCell id="5" value="A = pi*r2&lt;br&gt;P = 2*pi*r&amp;nbsp;" style="rounded=0;whiteSpace=wrap;html=1;fontFamily=Comic Sans MS;fontSize=16;fillColor=#d80073;fontColor=#ffffff;strokeColor=#A50040;" vertex="1" parent="1">
                    <mxGeometry x="270" y="350" width="120" height="60" as="geometry"/>
                </mxCell>
                <mxCell id="6" value="A,P" style="shape=document;whiteSpace=wrap;html=1;boundedLbl=1;fontFamily=Comic Sans MS;fontSize=16;fillColor=#a20025;fontColor=#ffffff;strokeColor=#6F0000;" vertex="1" parent="1">
                    <mxGeometry x="270" y="440" width="120" height="80" as="geometry"/>
                </mxCell>
                <mxCell id="10" style="edgeStyle=none;html=1;exitX=0.5;exitY=0;exitDx=0;exitDy=0;fontFamily=Comic Sans MS;fontSize=16;" edge="1" parent="1" source="9" target="6">
                    <mxGeometry relative="1" as="geometry"/>
                </mxCell>
                <mxCell id="9" value="FIN" style="ellipse;whiteSpace=wrap;html=1;fontFamily=Comic Sans MS;fontSize=16;fillColor=#d80073;fontColor=#ffffff;strokeColor=#A50040;" vertex="1" parent="1">
                    <mxGeometry x="270" y="540" width="120" height="80" as="geometry"/>
                </mxCell>
                <mxCell id="11" style="edgeStyle=none;html=1;fontFamily=Comic Sans MS;fontSize=16;" edge="1" parent="1" source="9" target="9">
                    <mxGeometry relative="1" as="geometry"/>
                </mxCell>
                <mxCell id="12" style="edgeStyle=none;html=1;exitX=0.5;exitY=0;exitDx=0;exitDy=0;fontFamily=Comic Sans MS;fontSize=16;" edge="1" parent="1" source="9" target="9">
                    <mxGeometry relative="1" as="geometry"/>
                </mxCell>
            </root>
        </mxGraphModel>
    </diagram>
</mxfile>